<svg width="27" height="27" viewBox="0 0 27 27" fill="none" xmlns="http://www.w3.org/2000/svg">
<path fill-rule="evenodd" clip-rule="evenodd" d="M4.02339 7C2.91882 7 2.02339 7.89543 2.02339 9V23C2.02339 24.1046 2.91882 25 4.02339 25H22.0234C23.128 25 24.0234 24.1046 24.0234 23V9C24.0234 7.89543 23.128 7 22.0234 7H4.02339ZM0.0233917 9C0.0233917 6.79086 1.81425 5 4.02339 5H22.0234C24.2325 5 26.0234 6.79086 26.0234 9V23C26.0234 25.2091 24.2325 27 22.0234 27H4.02339C1.81425 27 0.0233917 25.2091 0.0233917 23V9Z" fill="#B80952"/>
<path fill-rule="evenodd" clip-rule="evenodd" d="M8.52339 18C7.69496 18 7.02339 18.6716 7.02339 19.5C7.02339 20.3284 7.69496 21 8.52339 21H17.5234C18.3518 21 19.0234 20.3284 19.0234 19.5C19.0234 18.6716 18.3518 18 17.5234 18H8.52339ZM5.02339 19.5C5.02339 17.567 6.59039 16 8.52339 16H17.5234C19.4564 16 21.0234 17.567 21.0234 19.5C21.0234 21.433 19.4564 23 17.5234 23H8.52339C6.59039 23 5.02339 21.433 5.02339 19.5Z" fill="#B80952"/>
<path fill-rule="evenodd" clip-rule="evenodd" d="M15.5234 16C16.0757 16 16.5234 16.4477 16.5234 17V22C16.5234 22.5523 16.0757 23 15.5234 23C14.9711 23 14.5234 22.5523 14.5234 22V17C14.5234 16.4477 14.9711 16 15.5234 16Z" fill="#B80952"/>
<path fill-rule="evenodd" clip-rule="evenodd" d="M10.5234 16C11.0757 16 11.5234 16.4477 11.5234 17V22C11.5234 22.5523 11.0757 23 10.5234 23C9.97111 23 9.52339 22.5523 9.52339 22V17C9.52339 16.4477 9.97111 16 10.5234 16Z" fill="#B80952"/>
<path fill-rule="evenodd" clip-rule="evenodd" d="M13.0234 0C13.5757 0 14.0234 0.447715 14.0234 1V6C14.0234 6.55228 13.5757 7 13.0234 7C12.4711 7 12.0234 6.55228 12.0234 6V1C12.0234 0.447715 12.4711 0 13.0234 0Z" fill="#B80952"/>
<path d="M7.52339 14C8.35182 14 9.02339 13.3284 9.02339 12.5C9.02339 11.6716 8.35182 11 7.52339 11C6.69496 11 6.02339 11.6716 6.02339 12.5C6.02339 13.3284 6.69496 14 7.52339 14Z" fill="#B80952"/>
<path d="M18.5234 14C19.3518 14 20.0234 13.3284 20.0234 12.5C20.0234 11.6716 19.3518 11 18.5234 11C17.695 11 17.0234 11.6716 17.0234 12.5C17.0234 13.3284 17.695 14 18.5234 14Z" fill="#B80952"/>
</svg>
