<svg width="27" height="30" viewBox="0 0 27 30" fill="none" xmlns="http://www.w3.org/2000/svg">
<path fill-rule="evenodd" clip-rule="evenodd" d="M12.0416 0.905735C12.3404 0.734517 12.6789 0.644409 13.0234 0.644409C13.3679 0.644409 13.7063 0.734518 14.0052 0.905734L25.0047 7.09296C25.3124 7.26771 25.5686 7.5205 25.7474 7.82585C25.9263 8.13119 26.0215 8.4783 26.0234 8.83216L26.0234 8.83753L26.0234 21.1625H25.0234L26.0234 21.1679C26.0215 21.5218 25.9263 21.8689 25.7474 22.1742C25.5686 22.4796 25.3124 22.7324 25.0047 22.9071L25.0011 22.9091L14.0052 29.0943C13.7063 29.2656 13.3679 29.3557 13.0234 29.3557C12.6789 29.3557 12.3404 29.2656 12.0416 29.0943L1.04562 22.9091L1.04206 22.9071C0.734351 22.7324 0.478155 22.4796 0.299309 22.1742C0.120463 21.8689 0.0252914 21.5218 0.0233909 21.1679L0.0233765 21.1625V8.83216C0.025277 8.4783 0.120463 8.13119 0.299309 7.82585C0.478155 7.5205 0.734351 7.26771 1.04206 7.09296L1.04561 7.09095L12.0416 0.905735ZM24.0234 21.1577V8.84236C24.0233 8.84035 24.0227 8.8384 24.0217 8.83665C24.0206 8.83487 24.0192 8.83338 24.0174 8.8323L13.0234 2.64816L2.02969 8.8321C2.02793 8.83317 2.02612 8.83487 2.02508 8.83665C2.02406 8.8384 2.02347 8.84035 2.02338 8.84237V21.1577C2.02347 21.1597 2.02406 21.1617 2.02508 21.1634C2.02611 21.1652 2.02757 21.1667 2.02932 21.1677L13.0234 27.3519L24.0171 21.168C24.0188 21.1669 24.0206 21.1652 24.0217 21.1634C24.0227 21.1617 24.0233 21.1597 24.0234 21.1577Z" fill="#B80952"/>
<path fill-rule="evenodd" clip-rule="evenodd" d="M0.287296 7.83813C0.556193 7.35572 1.16524 7.18264 1.64765 7.45154L13.1311 13.8526L24.3918 7.45552C24.872 7.18272 25.4825 7.35086 25.7553 7.83106C26.0281 8.31127 25.8599 8.9217 25.3797 9.1945L13.6297 15.8695C13.3259 16.0421 12.9541 16.0436 12.6489 15.8735L0.673883 9.19848C0.19148 8.92958 0.0183992 8.32053 0.287296 7.83813Z" fill="#B80952"/>
<path fill-rule="evenodd" clip-rule="evenodd" d="M13.1443 14C13.6966 14.0047 14.1405 14.4562 14.1358 15.0084L14.0233 28.3584C14.0187 28.9107 13.5672 29.3546 13.015 29.35C12.4627 29.3453 12.0188 28.8938 12.0234 28.3416L12.1359 14.9916C12.1406 14.4393 12.592 13.9954 13.1443 14Z" fill="#B80952"/>
</svg>
