<svg width="31" height="24" viewBox="0 0 31 24" fill="none" xmlns="http://www.w3.org/2000/svg">
<path fill-rule="evenodd" clip-rule="evenodd" d="M17.0234 8.5C17.0234 7.94772 17.4712 7.5 18.0234 7.5H22.0234C22.5757 7.5 23.0234 7.94772 23.0234 8.5C23.0234 9.05229 22.5757 9.5 22.0234 9.5H18.0234C17.4712 9.5 17.0234 9.05229 17.0234 8.5Z" fill="#B80952"/>
<path fill-rule="evenodd" clip-rule="evenodd" d="M7.02344 8.5C7.02344 7.94772 7.47115 7.5 8.02344 7.5H12.0234C12.5757 7.5 13.0234 7.94772 13.0234 8.5C13.0234 9.05229 12.5757 9.5 12.0234 9.5H8.02344C7.47115 9.5 7.02344 9.05229 7.02344 8.5Z" fill="#B80952"/>
<path fill-rule="evenodd" clip-rule="evenodd" d="M10.0234 5.5C10.5757 5.5 11.0234 5.94772 11.0234 6.5V10.5C11.0234 11.0523 10.5757 11.5 10.0234 11.5C9.47115 11.5 9.02344 11.0523 9.02344 10.5V6.5C9.02344 5.94772 9.47115 5.5 10.0234 5.5Z" fill="#B80952"/>
<path fill-rule="evenodd" clip-rule="evenodd" d="M20.5235 0.962524C22.5126 0.962524 24.4203 1.7527 25.8268 3.15922C27.2333 4.56575 28.0235 6.4734 28.0235 8.46252C28.0235 10.4516 27.2333 12.3593 25.8268 13.7658C24.4208 15.1718 22.5142 15.9619 20.5259 15.9625H20.5235L12.8445 15.998L7.7404 21.6455L6.9985 20.975L7.70705 21.6807C7.03039 22.3601 6.15438 22.8056 5.20674 22.9523C4.25911 23.0989 3.28941 22.939 2.43903 22.4959C1.58864 22.0528 0.902051 21.3496 0.479354 20.4889C0.056657 19.6281 -0.0800399 18.6549 0.0891952 17.711L0.0919864 17.6961L2.14041 7.19169C2.44973 5.45979 3.35709 3.89128 4.70444 2.75971C6.05384 1.62643 7.75867 1.00357 9.52081 1.00003M20.5235 2.96252L9.5254 3.00002C8.23218 3.00248 6.98099 3.45954 5.99068 4.29124C5.00038 5.12294 4.334 6.27634 4.10813 7.54969L3.1235 7.37502L4.10501 7.56642L2.05659 18.0709C1.96445 18.5931 2.04075 19.1311 2.27456 19.6072C2.50939 20.0854 2.89083 20.4761 3.36326 20.7223C3.8357 20.9685 4.37442 21.0573 4.90088 20.9758C5.42003 20.8955 5.90048 20.6537 6.2742 20.285L11.6566 14.3295C11.8451 14.1209 12.1127 14.0013 12.3939 14L20.5189 13.9625L20.5235 13.9625C21.9822 13.9625 23.3811 13.3831 24.4126 12.3516C25.444 11.3202 26.0235 9.92122 26.0235 8.46252C26.0235 7.00383 25.444 5.60489 24.4126 4.57344C23.3815 3.54237 21.9832 2.96296 20.5251 2.96252L20.5235 2.96252Z" fill="#B80952"/>
<path fill-rule="evenodd" clip-rule="evenodd" d="M26.7327 6.35589C27.2748 6.25054 27.7997 6.60464 27.9051 7.14678L29.9551 17.6968L29.9578 17.711C30.127 18.6549 29.9903 19.6281 29.5676 20.4889C29.1449 21.3496 28.4583 22.0528 27.6079 22.4959C26.7575 22.939 25.7878 23.0989 24.8402 22.9523C23.8926 22.8057 23.0166 22.3601 22.3399 21.6807L23.0484 20.975L22.3052 21.644L16.9052 15.644C16.5357 15.2335 16.569 14.6012 16.9795 14.2317C17.39 13.8623 18.0223 13.8956 18.3917 14.3061L23.7734 20.2857C24.147 20.654 24.6272 20.8955 25.1461 20.9758C25.6725 21.0573 26.2112 20.9685 26.6837 20.7223C27.1561 20.4761 27.5376 20.0854 27.7724 19.6073C28.0062 19.1311 28.0825 18.5929 27.9903 18.0706L25.9418 7.52827C25.8365 6.98613 26.1906 6.46123 26.7327 6.35589Z" fill="#B80952"/>
</svg>
