<svg width="31" height="25" viewBox="0 0 31 25" fill="none" xmlns="http://www.w3.org/2000/svg">
<path fill-rule="evenodd" clip-rule="evenodd" d="M7.27086 0.341495C7.46075 0.12448 7.73508 0 8.02344 0H22.0234C22.3118 0 22.5861 0.12448 22.776 0.341495L29.776 8.3415C30.114 8.72774 30.1047 9.30712 29.7545 9.68232L15.7545 24.6823C15.5654 24.885 15.3006 25 15.0234 25C14.7463 25 14.4815 24.885 14.2924 24.6823L0.292383 9.68232C-0.0578017 9.30712 -0.0671013 8.72774 0.270861 8.3415L7.27086 0.341495ZM8.47721 2L2.37113 8.97837L15.0234 22.5344L27.6757 8.97837L21.5697 2H8.47721Z" fill="#B80952"/>
<path fill-rule="evenodd" clip-rule="evenodd" d="M15.0235 0C15.3344 0 15.6276 0.144622 15.8169 0.391308L21.9544 8.39131C22.1709 8.67352 22.2212 9.04949 22.0865 9.37869L15.949 24.3787C15.7953 24.7545 15.4295 25 15.0234 25C14.6174 25 14.2517 24.7545 14.098 24.3787L7.96047 9.37869C7.82578 9.04949 7.87608 8.67352 8.09259 8.39131L14.2301 0.391308C14.4193 0.144622 14.7126 0 15.0235 0ZM15.0235 2.64287L10.029 9.15294L15.0235 21.3593L20.0179 9.15294L15.0235 2.64287Z" fill="#B80952"/>
<path fill-rule="evenodd" clip-rule="evenodd" d="M0.0234375 9C0.0234375 8.44771 0.471153 8 1.02344 8H29.0234C29.5757 8 30.0234 8.44771 30.0234 9C30.0234 9.55229 29.5757 10 29.0234 10H1.02344C0.471153 10 0.0234375 9.55229 0.0234375 9Z" fill="#B80952"/>
</svg>
